<svg width="256" height="256" viewBox="0 0 256 256" fill="none" xmlns="http://www.w3.org/2000/svg">
  <rect width="256" height="256" rx="36" fill="#0F1722"/>
  <rect x="24" y="24" width="208" height="208" rx="28" fill="#111B29"/>

  <g fill="#E6F7EE">
    <rect x="72" y="84" width="16" height="16"/>
    <rect x="88" y="68" width="16" height="16"/>
    <rect x="104" y="68" width="16" height="16"/>
    <rect x="120" y="84" width="16" height="16"/>
    <rect x="136" y="68" width="16" height="16"/>
    <rect x="152" y="68" width="16" height="16"/>
    <rect x="168" y="84" width="16" height="16"/>

    <rect x="88" y="100" width="16" height="16"/>
    <rect x="104" y="100" width="16" height="16"/>
    <rect x="120" y="100" width="16" height="16"/>
    <rect x="136" y="100" width="16" height="16"/>
    <rect x="152" y="100" width="16" height="16"/>

    <rect x="72" y="116" width="16" height="16"/>
    <rect x="88" y="116" width="16" height="16"/>
    <rect x="104" y="116" width="16" height="16"/>
    <rect x="120" y="116" width="16" height="16"/>
    <rect x="136" y="116" width="16" height="16"/>
    <rect x="152" y="116" width="16" height="16"/>
    <rect x="168" y="116" width="16" height="16"/>

    <rect x="88" y="132" width="16" height="16"/>
    <rect x="104" y="132" width="16" height="16"/>
    <rect x="120" y="132" width="16" height="16"/>
    <rect x="136" y="132" width="16" height="16"/>
    <rect x="152" y="132" width="16" height="16"/>

    <rect x="104" y="148" width="16" height="16"/>
    <rect x="120" y="148" width="16" height="16"/>
    <rect x="136" y="148" width="16" height="16"/>
    <rect x="120" y="164" width="16" height="16"/>
  </g>

  <g fill="#0F1722">
    <rect x="104" y="116" width="16" height="16"/>
    <rect x="136" y="116" width="16" height="16"/>
  </g>

  <g fill="#59D0A8">
    <rect x="184" y="88" width="16" height="16"/>
    <rect x="200" y="104" width="16" height="16"/>
    <rect x="216" y="120" width="16" height="16"/>

    <rect x="184" y="120" width="16" height="16"/>
    <rect x="200" y="120" width="16" height="16"/>
    <rect x="216" y="120" width="16" height="16"/>

    <rect x="184" y="152" width="16" height="16"/>
    <rect x="200" y="136" width="16" height="16"/>
    <rect x="216" y="120" width="16" height="16"/>
  </g>

  <g fill="#2F7A67">
    <rect x="176" y="104" width="8" height="48"/>
    <rect x="184" y="104" width="8" height="16"/>
    <rect x="184" y="136" width="8" height="16"/>
  </g>
</svg>
